<svg xmlns="http://www.w3.org/2000/svg" xmlns:xlink="http://www.w3.org/1999/xlink" width="500" zoomAndPan="magnify" viewBox="0 0 375 374.999991" height="500" preserveAspectRatio="xMidYMid meet" version="1.0"><path fill="#231f20" d="M 172.878906 222.339844 C 166.410156 222.339844 161.164062 217.09375 161.164062 210.625 C 161.164062 204.152344 166.410156 198.910156 172.878906 198.910156 C 179.351562 198.910156 184.597656 204.152344 184.597656 210.625 C 184.597656 217.09375 179.351562 222.339844 172.878906 222.339844 Z M 254.980469 151.347656 C 253.652344 161.28125 245.167969 168.949219 234.871094 168.949219 C 223.648438 168.949219 214.554688 159.855469 214.554688 148.636719 C 214.554688 137.414062 223.648438 128.320312 234.871094 128.320312 C 235.46875 128.320312 236.050781 128.359375 236.632812 128.410156 C 223.203125 116.980469 205.8125 110.070312 186.792969 110.070312 C 144.285156 110.070312 109.828125 144.527344 109.828125 187.035156 C 109.828125 229.546875 144.285156 264.003906 186.792969 264.003906 C 229.300781 264.003906 263.761719 229.546875 263.761719 187.035156 C 263.761719 174.15625 260.578125 162.019531 254.980469 151.347656 " fill-opacity="1" fill-rule="nonzero"/><path fill="#89cf25" d="M 270.554688 135.234375 C 268.472656 68.367188 212.574219 15.855469 145.707031 17.9375 C 105.035156 19.207031 69.675781 40.390625 48.679688 71.839844 C 70.964844 54.890625 98.183594 45.648438 126.367188 45.648438 C 129.378906 45.648438 132.382812 45.765625 135.367188 45.972656 C 139.046875 45.519531 142.777344 45.226562 146.558594 45.109375 C 208.824219 43.164062 261.578125 88.582031 270.21875 148.839844 C 270.566406 144.367188 270.699219 139.820312 270.554688 135.234375 " fill-opacity="1" fill-rule="nonzero"/><path fill="#f7c80b" d="M 47.546875 118.410156 C 50.222656 116.113281 52.984375 113.9375 55.820312 111.878906 C 58.339844 109.179688 61 106.566406 63.808594 104.054688 C 110.257812 62.542969 179.859375 63.425781 225.210938 104.03125 C 222.605469 100.375 219.78125 96.8125 216.722656 93.386719 C 172.148438 43.507812 95.574219 39.210938 45.691406 83.785156 C 15.351562 110.902344 1.878906 149.863281 6.011719 187.453125 C 12.078125 160.648438 26.585938 136.417969 47.546875 118.410156 " fill-opacity="1" fill-rule="nonzero"/><path fill="#f0441d" d="M 148.59375 95.9375 C 82.382812 86.378906 20.960938 132.308594 11.402344 198.523438 C 5.589844 238.785156 20.304688 277.28125 47.617188 303.417969 C 33.59375 276.269531 29.730469 245.351562 36.789062 215.285156 C 36.925781 214.703125 37.074219 214.125 37.21875 213.546875 C 37.410156 209.851562 37.769531 206.136719 38.308594 202.402344 C 47.207031 140.746094 101.09375 96.683594 161.9375 98.636719 C 157.589844 97.511719 153.136719 96.59375 148.59375 95.9375 " fill-opacity="1" fill-rule="nonzero"/><path fill="#ed1346" d="M 89.105469 304.980469 C 88.835938 304.445312 88.578125 303.902344 88.316406 303.363281 C 86.089844 300.414062 83.976562 297.335938 81.992188 294.132812 C 49.175781 241.183594 62.128906 172.789062 109.996094 135.175781 C 105.945312 137.109375 101.941406 139.269531 98.039062 141.6875 C 41.175781 176.921875 23.644531 251.585938 58.886719 308.453125 C 80.3125 343.035156 116.328125 363.066406 154.046875 365.53125 C 125.859375 353.75 103.023438 332.546875 89.105469 304.980469 " fill-opacity="1" fill-rule="nonzero"/><path fill="#9a158e" d="M 237.503906 350.488281 C 219.351562 350.488281 201.589844 346.65625 185.179688 339.328125 C 181.582031 338.5 177.992188 337.5 174.414062 336.324219 C 115.242188 316.855469 81.207031 256.136719 93.695312 196.554688 C 91.832031 200.640625 90.15625 204.867188 88.71875 209.226562 C 67.808594 272.773438 102.371094 341.238281 165.921875 362.148438 C 204.570312 374.863281 245.039062 367.058594 275.519531 344.691406 C 263.183594 348.535156 250.4375 350.488281 237.503906 350.488281 " fill-opacity="1" fill-rule="nonzero"/><path fill="#383494" d="M 282.414062 304.664062 C 279.160156 306.324219 275.796875 307.851562 272.335938 309.234375 C 214.492188 332.355469 149.390625 307.722656 120.660156 254.050781 C 121.859375 258.378906 123.289062 262.695312 124.992188 266.957031 C 149.824219 329.078125 220.304688 359.308594 282.429688 334.472656 C 320.226562 319.367188 346.214844 287.359375 355.179688 250.609375 C 338.140625 277.132812 312.175781 296.179688 282.414062 304.664062 " fill-opacity="1" fill-rule="nonzero"/><path fill="#3d6abc" d="M 355.738281 127.425781 C 359.628906 157.734375 352.691406 188.113281 335.773438 213.953125 C 335.445312 214.449219 335.113281 214.9375 334.78125 215.425781 C 333.335938 218.835938 331.722656 222.210938 329.9375 225.539062 C 300.492188 280.4375 234.78125 303.40625 178.273438 280.761719 C 181.972656 283.308594 185.847656 285.691406 189.890625 287.863281 C 248.84375 319.492188 322.269531 297.339844 353.890625 238.390625 C 373.125 202.539062 372.464844 161.328125 355.738281 127.425781 " fill-opacity="1" fill-rule="nonzero"/><path fill="#3d99c4" d="M 346.871094 118.847656 C 338.5625 79.019531 311.570312 47.878906 276.960938 32.660156 C 299.425781 53.375 313.632812 81.105469 317.285156 111.773438 C 317.355469 112.367188 317.410156 112.957031 317.472656 113.546875 C 318.558594 117.085938 319.492188 120.707031 320.265625 124.402344 C 332.988281 185.382812 297.421875 245.21875 239.578125 264.191406 C 244.050781 263.765625 248.546875 263.101562 253.042969 262.164062 C 318.53125 248.5 360.539062 184.335938 346.871094 118.847656 " fill-opacity="1" fill-rule="nonzero"/><path fill="#37b63f" d="M 264.65625 31.78125 C 232.695312 6.621094 192.003906 0.113281 155.714844 10.695312 C 186.871094 12.167969 216.152344 24.796875 238.753906 46.636719 C 241.851562 48.644531 244.886719 50.8125 247.84375 53.140625 C 296.789062 91.675781 308.003906 160.375 275.894531 212.089844 C 279.042969 208.890625 282.0625 205.492188 284.898438 201.882812 C 326.285156 149.320312 317.222656 73.167969 264.65625 31.78125 " fill-opacity="1" fill-rule="nonzero"/></svg>